# xmcd CD database file
#
# Track frame offsets:
#	150
#	17622
#	34950
#	52410
#
# Disc length: 925 seconds
#
# Revision: 0
# Processed by: cddbd v1.5PL3 Copyright (c) Steve Scherf et al.
# Submitted via: CDex 1.51
#
DISCID=32039b04
DTITLE=Soulhead - NO WAY
DYEAR=2004
DGENRE=JPop
TTITLE0=NO WAY
TTITLE1=D.O.G
TTITLE2=NO WAY -Instrumental-
TTITLE3=D.O.G -Instrumental-
EXTD=YEAR: 2004
EXTT0=
EXTT1=
EXTT2=
EXTT3=
PLAYORDER=
